<svg xmlns="http://www.w3.org/2000/svg" viewBox="0 0 320 520" fill="none">
  <defs>
    <linearGradient id="sky" x1="0%" y1="0%" x2="100%" y2="100%">
      <stop offset="0%" stop-color="#0a0f2e"/>
      <stop offset="55%" stop-color="#1a1f55"/>
      <stop offset="100%" stop-color="#120a28"/>
    </linearGradient>
    <radialGradient id="planet" cx="40%" cy="35%" r="55%">
      <stop offset="0%" stop-color="#7cf0ff"/>
      <stop offset="45%" stop-color="#4a6bff"/>
      <stop offset="100%" stop-color="#1c1f4a"/>
    </radialGradient>
    <linearGradient id="visor" x1="0%" y1="0%" x2="0%" y2="100%">
      <stop offset="0%" stop-color="#e8ffff"/>
      <stop offset="100%" stop-color="#7cf0ff"/>
    </linearGradient>
    <filter id="glow" x="-40%" y="-40%" width="180%" height="180%">
      <feGaussianBlur stdDeviation="6" result="b"/>
      <feMerge>
        <feMergeNode in="b"/>
        <feMergeNode in="SourceGraphic"/>
      </feMerge>
    </filter>
  </defs>
  <rect width="320" height="520" rx="18" fill="url(#sky)"/>
  <circle cx="230" cy="110" r="52" fill="url(#planet)" opacity="0.95"/>
  <circle cx="230" cy="110" r="58" stroke="#ff7eb3" stroke-opacity="0.35" stroke-width="2"/>
  <ellipse cx="70" cy="420" rx="90" ry="22" fill="#0c1028" opacity="0.55"/>
  <g filter="url(#glow)">
    <ellipse cx="160" cy="300" rx="78" ry="96" fill="#2a1f4a" stroke="#7cf0ff" stroke-width="2.5"/>
    <ellipse cx="160" cy="268" rx="54" ry="62" fill="#1a1538" stroke="#ff7eb3" stroke-width="2"/>
    <ellipse cx="160" cy="252" rx="40" ry="36" fill="url(#visor)" opacity="0.9"/>
    <path d="M160 200 L130 235 L190 235 Z" fill="#ff7eb3" opacity="0.85"/>
    <rect x="118" y="318" width="84" height="28" rx="10" fill="#7cf0ff" opacity="0.35"/>
    <rect x="100" y="350" width="120" height="18" rx="8" fill="#4a6bff" opacity="0.5"/>
  </g>
  <g stroke="#7cf0ff" stroke-opacity="0.35" stroke-width="1.2">
    <path d="M20 120 L80 95"/>
    <path d="M260 380 L300 400"/>
    <path d="M40 460 L100 430"/>
  </g>
  <circle cx="50" cy="80" r="2" fill="#fff" opacity="0.7"/>
  <circle cx="280" cy="60" r="1.5" fill="#fff" opacity="0.55"/>
  <circle cx="200" cy="40" r="1.2" fill="#fff" opacity="0.5"/>
</svg>
